<svg width="24" height="24" viewBox="0 0 24 24" fill="none" xmlns="http://www.w3.org/2000/svg">
<path d="M21.5969 11.9944C21.5969 16.9096 17.5981 20.9888 12.793 20.9888C7.99879 20.9888 4 16.9096 4 11.9944C4 7.07925 7.9879 3 12.7821 3C17.5871 3 21.5969 7.07925 21.5969 11.9944ZM15.2664 8.55046L11.7906 14.3015L10.2216 12.1616C9.98185 11.8272 9.76393 11.7381 9.49154 11.7381C9.0339 11.7381 8.70703 12.1059 8.70703 12.5628C8.70703 12.7858 8.7833 13.0087 8.93584 13.1981L10.9625 15.795C11.224 16.1516 11.4964 16.2854 11.8341 16.2854C12.161 16.2854 12.4443 16.1294 12.6513 15.795L16.5303 9.50897C16.6611 9.30835 16.7809 9.0743 16.7809 8.85138C16.7809 8.37213 16.3886 8.08234 15.9528 8.08234C15.6913 8.08234 15.4407 8.23838 15.2664 8.55046Z" fill="white"/>
</svg>
