<svg width="22" height="24" viewBox="0 0 22 24" fill="none" xmlns="http://www.w3.org/2000/svg">
<path d="M13.4746 7.625C13.4746 8.43555 13.9336 8.9043 14.7539 8.9043H18.8945V16.1113C18.8945 17.7715 18.0742 18.6016 16.4336 18.6016H16.3164V14.1191C16.3262 12.8984 15.9648 11.9121 15.2129 11.1406L11.2676 7.09766C10.4277 6.23828 9.50977 5.85742 8.25 5.85742H6.85352V5.53516C6.85352 3.98242 7.66406 3.11328 9.30469 3.11328H13.4746V7.625ZM15.3105 3.98242L18.3086 7.05859C18.6113 7.36133 18.7871 7.5957 18.8359 7.85938H14.9297C14.627 7.85938 14.5195 7.74219 14.5195 7.43945L14.5098 3.46484C14.7734 3.50391 15.0176 3.67969 15.3105 3.98242Z" fill="white"/>
<path d="M9.77344 12.9766H15.0566C14.9688 12.6445 14.7832 12.332 14.3926 11.9316L10.457 7.89844C10.0664 7.50781 9.74414 7.25391 9.41211 7.16602V12.6152C9.41211 12.8496 9.53906 12.9766 9.77344 12.9766ZM5.59375 22.4883H12.7227C14.3633 22.4883 15.1836 21.6582 15.1836 19.998V14.1191H9.79297C8.75781 14.1191 8.2793 13.6309 8.2793 12.5957V7H5.59375C3.95312 7 3.14258 7.83008 3.14258 9.49023V19.998C3.14258 21.668 3.95312 22.4883 5.59375 22.4883Z" fill="white"/>
</svg>
